<?xml version="1.0" encoding="UTF-8" standalone="no"?>
<!DOCTYPE svg PUBLIC "-//W3C//DTD SVG 1.1//EN"
 "http://www.w3.org/Graphics/SVG/1.1/DTD/svg11.dtd">
<!-- Generated by graphviz version 5.0.0 (20220707.1540)
 -->
<!-- Title: dependencies Pages: 1 -->
<svg width="2254pt" height="247pt"
 viewBox="0.00 0.00 2254.00 246.80" xmlns="http://www.w3.org/2000/svg" xmlns:xlink="http://www.w3.org/1999/xlink">
<g id="graph0" class="graph" transform="scale(1 1) rotate(0) translate(4 242.8)">
<title>dependencies</title>
<polygon fill="white" stroke="transparent" points="-4,4 -4,-242.8 2250,-242.8 2250,4 -4,4"/>
<text text-anchor="middle" x="1123" y="-8.2" font-family="sans-serif" font-size="14.00">dependencies</text>
<g id="clust1" class="cluster">
<title>cluster_AppModule</title>
<polygon fill="none" stroke="black" stroke-dasharray="1,5" points="8,-32.8 8,-230.8 2238,-230.8 2238,-32.8 8,-32.8"/>
</g>
<g id="clust2" class="cluster">
<title>cluster_AppModule_declarations</title>
<polygon fill="none" stroke="black" points="1194,-40.8 1194,-92.8 2230,-92.8 2230,-40.8 1194,-40.8"/>
</g>
<g id="clust11" class="cluster">
<title>cluster_AppModule_bootstrap</title>
<polygon fill="none" stroke="black" points="1224,-170.8 1224,-222.8 1348,-222.8 1348,-170.8 1224,-170.8"/>
</g>
<g id="clust9" class="cluster">
<title>cluster_AppModule_imports</title>
<polygon fill="none" stroke="black" points="16,-40.8 16,-92.8 1186,-92.8 1186,-40.8 16,-40.8"/>
</g>
<!-- AddCustomerDialogComponent -->
<g id="node1" class="node">
<title>AddCustomerDialogComponent</title>
<polygon fill="#ffffb3" stroke="black" points="2221.99,-84.8 2024.01,-84.8 2024.01,-48.8 2221.99,-48.8 2221.99,-84.8"/>
<text text-anchor="middle" x="2123" y="-62.6" font-family="Times,serif" font-size="14.00">AddCustomerDialogComponent</text>
</g>
<!-- AppModule -->
<g id="node7" class="node">
<title>AppModule</title>
<polygon fill="#8dd3c7" stroke="black" points="1327.66,-149.8 1324.66,-153.8 1303.66,-153.8 1300.66,-149.8 1244.34,-149.8 1244.34,-113.8 1327.66,-113.8 1327.66,-149.8"/>
<text text-anchor="middle" x="1286" y="-127.6" font-family="Times,serif" font-size="14.00">AppModule</text>
</g>
<!-- AddCustomerDialogComponent&#45;&gt;AppModule -->
<g id="edge1" class="edge">
<title>AddCustomerDialogComponent&#45;&gt;AppModule</title>
<path fill="none" stroke="black" d="M2123,-85.05C2123,-107.82 2123,-143.8 2123,-143.8 2123,-143.8 1337.79,-143.8 1337.79,-143.8"/>
<polygon fill="black" stroke="black" points="1337.79,-140.3 1327.79,-143.8 1337.79,-147.3 1337.79,-140.3"/>
</g>
<!-- AppComponent -->
<g id="node2" class="node">
<title>AppComponent</title>
<polygon fill="#ffffb3" stroke="black" points="2005.94,-84.8 1900.06,-84.8 1900.06,-48.8 2005.94,-48.8 2005.94,-84.8"/>
<text text-anchor="middle" x="1953" y="-62.6" font-family="Times,serif" font-size="14.00">AppComponent</text>
</g>
<!-- AppComponent&#45;&gt;AppModule -->
<g id="edge2" class="edge">
<title>AppComponent&#45;&gt;AppModule</title>
<path fill="none" stroke="black" d="M1953,-85.08C1953,-106.12 1953,-137.8 1953,-137.8 1953,-137.8 1337.72,-137.8 1337.72,-137.8"/>
<polygon fill="black" stroke="black" points="1337.72,-134.3 1327.72,-137.8 1337.72,-141.3 1337.72,-134.3"/>
</g>
<!-- CustomerCardDialogComponent -->
<g id="node3" class="node">
<title>CustomerCardDialogComponent</title>
<polygon fill="#ffffb3" stroke="black" points="1882.59,-84.8 1681.41,-84.8 1681.41,-48.8 1882.59,-48.8 1882.59,-84.8"/>
<text text-anchor="middle" x="1782" y="-62.6" font-family="Times,serif" font-size="14.00">CustomerCardDialogComponent</text>
</g>
<!-- CustomerCardDialogComponent&#45;&gt;AppModule -->
<g id="edge3" class="edge">
<title>CustomerCardDialogComponent&#45;&gt;AppModule</title>
<path fill="none" stroke="black" d="M1782,-84.91C1782,-104.14 1782,-131.8 1782,-131.8 1782,-131.8 1337.86,-131.8 1337.86,-131.8"/>
<polygon fill="black" stroke="black" points="1337.86,-128.3 1327.86,-131.8 1337.86,-135.3 1337.86,-128.3"/>
</g>
<!-- CustomerComponent -->
<g id="node4" class="node">
<title>CustomerComponent</title>
<polygon fill="#ffffb3" stroke="black" points="1663.77,-84.8 1528.23,-84.8 1528.23,-48.8 1663.77,-48.8 1663.77,-84.8"/>
<text text-anchor="middle" x="1596" y="-62.6" font-family="Times,serif" font-size="14.00">CustomerComponent</text>
</g>
<!-- CustomerComponent&#45;&gt;AppModule -->
<g id="edge4" class="edge">
<title>CustomerComponent&#45;&gt;AppModule</title>
<path fill="none" stroke="black" d="M1596,-84.82C1596,-102.17 1596,-125.8 1596,-125.8 1596,-125.8 1337.81,-125.8 1337.81,-125.8"/>
<polygon fill="black" stroke="black" points="1337.81,-122.3 1327.81,-125.8 1337.81,-129.3 1337.81,-122.3"/>
</g>
<!-- HeaderComponent -->
<g id="node5" class="node">
<title>HeaderComponent</title>
<polygon fill="#ffffb3" stroke="black" points="1509.75,-84.8 1388.25,-84.8 1388.25,-48.8 1509.75,-48.8 1509.75,-84.8"/>
<text text-anchor="middle" x="1449" y="-62.6" font-family="Times,serif" font-size="14.00">HeaderComponent</text>
</g>
<!-- HeaderComponent&#45;&gt;AppModule -->
<g id="edge5" class="edge">
<title>HeaderComponent&#45;&gt;AppModule</title>
<path fill="none" stroke="black" d="M1449,-85.04C1449,-100.37 1449,-119.8 1449,-119.8 1449,-119.8 1337.98,-119.8 1337.98,-119.8"/>
<polygon fill="black" stroke="black" points="1337.98,-116.3 1327.98,-119.8 1337.98,-123.3 1337.98,-116.3"/>
</g>
<!-- SetTerminationComponent -->
<g id="node6" class="node">
<title>SetTerminationComponent</title>
<polygon fill="#ffffb3" stroke="black" points="1370.42,-84.8 1201.58,-84.8 1201.58,-48.8 1370.42,-48.8 1370.42,-84.8"/>
<text text-anchor="middle" x="1286" y="-62.6" font-family="Times,serif" font-size="14.00">SetTerminationComponent</text>
</g>
<!-- SetTerminationComponent&#45;&gt;AppModule -->
<g id="edge6" class="edge">
<title>SetTerminationComponent&#45;&gt;AppModule</title>
<path fill="none" stroke="black" d="M1286,-84.91C1286,-84.91 1286,-103.79 1286,-103.79"/>
<polygon fill="black" stroke="black" points="1282.5,-103.79 1286,-113.79 1289.5,-103.79 1282.5,-103.79"/>
</g>
<!-- AppComponent  -->
<g id="node13" class="node">
<title>AppComponent </title>
<polygon fill="#80b1d3" stroke="black" points="1340.44,-214.8 1231.56,-214.8 1231.56,-178.8 1340.44,-178.8 1340.44,-214.8"/>
<text text-anchor="middle" x="1286" y="-192.6" font-family="Times,serif" font-size="14.00">AppComponent </text>
</g>
<!-- AppModule&#45;&gt;AppComponent  -->
<g id="edge12" class="edge">
<title>AppModule&#45;&gt;AppComponent </title>
<path fill="none" stroke="black" stroke-dasharray="1,5" d="M1286,-149.91C1286,-149.91 1286,-168.79 1286,-168.79"/>
<polygon fill="black" stroke="black" points="1282.5,-168.79 1286,-178.79 1289.5,-168.79 1282.5,-168.79"/>
</g>
<!-- AppRoutingModule -->
<g id="node8" class="node">
<title>AppRoutingModule</title>
<polygon fill="#8dd3c7" stroke="black" points="1178.28,-84.8 1175.28,-88.8 1154.28,-88.8 1151.28,-84.8 1049.72,-84.8 1049.72,-48.8 1178.28,-48.8 1178.28,-84.8"/>
<text text-anchor="middle" x="1114" y="-62.6" font-family="Times,serif" font-size="14.00">AppRoutingModule</text>
</g>
<!-- AppRoutingModule&#45;&gt;AppModule -->
<g id="edge7" class="edge">
<title>AppRoutingModule&#45;&gt;AppModule</title>
<path fill="none" stroke="black" d="M1114,-85.04C1114,-100.37 1114,-119.8 1114,-119.8 1114,-119.8 1233.92,-119.8 1233.92,-119.8"/>
<polygon fill="black" stroke="black" points="1233.92,-123.3 1243.92,-119.8 1233.92,-116.3 1233.92,-123.3"/>
</g>
<!-- provideAuth(() =&gt; getAuth()) -->
<g id="node9" class="node">
<title>provideAuth(() =&gt; getAuth())</title>
<polygon fill="#8dd3c7" stroke="black" points="1031.13,-84.8 1028.13,-88.8 1007.13,-88.8 1004.13,-84.8 848.87,-84.8 848.87,-48.8 1031.13,-48.8 1031.13,-84.8"/>
<text text-anchor="middle" x="940" y="-62.6" font-family="Times,serif" font-size="14.00">provideAuth(() =&gt; getAuth())</text>
</g>
<!-- provideAuth(() =&gt; getAuth())&#45;&gt;AppModule -->
<g id="edge8" class="edge">
<title>provideAuth(() =&gt; getAuth())&#45;&gt;AppModule</title>
<path fill="none" stroke="black" d="M940,-84.82C940,-102.17 940,-125.8 940,-125.8 940,-125.8 1234.26,-125.8 1234.26,-125.8"/>
<polygon fill="black" stroke="black" points="1234.26,-129.3 1244.26,-125.8 1234.26,-122.3 1234.26,-129.3"/>
</g>
<!-- provideDatabase(() =&gt; getDatabase()) -->
<g id="node10" class="node">
<title>provideDatabase(() =&gt; getDatabase())</title>
<polygon fill="#8dd3c7" stroke="black" points="830.74,-84.8 827.74,-88.8 806.74,-88.8 803.74,-84.8 601.26,-84.8 601.26,-48.8 830.74,-48.8 830.74,-84.8"/>
<text text-anchor="middle" x="716" y="-62.6" font-family="Times,serif" font-size="14.00">provideDatabase(() =&gt; getDatabase())</text>
</g>
<!-- provideDatabase(() =&gt; getDatabase())&#45;&gt;AppModule -->
<g id="edge9" class="edge">
<title>provideDatabase(() =&gt; getDatabase())&#45;&gt;AppModule</title>
<path fill="none" stroke="black" d="M716,-84.91C716,-104.14 716,-131.8 716,-131.8 716,-131.8 1234.09,-131.8 1234.09,-131.8"/>
<polygon fill="black" stroke="black" points="1234.09,-135.3 1244.09,-131.8 1234.09,-128.3 1234.09,-135.3"/>
</g>
<!-- provideFirebaseApp(() =&gt; initializeApp(environment -->
<g id="node11" class="node">
<title>provideFirebaseApp(() =&gt; initializeApp(environment</title>
<polygon fill="#8dd3c7" stroke="black" points="583.59,-84.8 580.59,-88.8 559.59,-88.8 556.59,-84.8 268.41,-84.8 268.41,-48.8 583.59,-48.8 583.59,-84.8"/>
<text text-anchor="middle" x="426" y="-62.6" font-family="Times,serif" font-size="14.00">provideFirebaseApp(() =&gt; initializeApp(environment</text>
</g>
<!-- provideFirebaseApp(() =&gt; initializeApp(environment&#45;&gt;AppModule -->
<g id="edge10" class="edge">
<title>provideFirebaseApp(() =&gt; initializeApp(environment&#45;&gt;AppModule</title>
<path fill="none" stroke="black" d="M426,-85.08C426,-106.12 426,-137.8 426,-137.8 426,-137.8 1234.23,-137.8 1234.23,-137.8"/>
<polygon fill="black" stroke="black" points="1234.23,-141.3 1244.23,-137.8 1234.23,-134.3 1234.23,-141.3"/>
</g>
<!-- provideFirestore(() =&gt; getFirestore()) -->
<g id="node12" class="node">
<title>provideFirestore(() =&gt; getFirestore())</title>
<polygon fill="#8dd3c7" stroke="black" points="250.16,-84.8 247.16,-88.8 226.16,-88.8 223.16,-84.8 23.84,-84.8 23.84,-48.8 250.16,-48.8 250.16,-84.8"/>
<text text-anchor="middle" x="137" y="-62.6" font-family="Times,serif" font-size="14.00">provideFirestore(() =&gt; getFirestore())</text>
</g>
<!-- provideFirestore(() =&gt; getFirestore())&#45;&gt;AppModule -->
<g id="edge11" class="edge">
<title>provideFirestore(() =&gt; getFirestore())&#45;&gt;AppModule</title>
<path fill="none" stroke="black" d="M137,-85.05C137,-107.82 137,-143.8 137,-143.8 137,-143.8 1234.09,-143.8 1234.09,-143.8"/>
<polygon fill="black" stroke="black" points="1234.09,-147.3 1244.09,-143.8 1234.09,-140.3 1234.09,-147.3"/>
</g>
</g>
</svg>
